HIERARCHY
ROOT Hips
{
	OFFSET 0.000000 0.000000 0.000000
	CHANNELS 6 Xposition Yposition Zposition Xrotation Yrotation Zrotation
	JOINT LeftUpLeg_virtual
	{
		OFFSET 0.000000 0.000000 0.000000
		CHANNELS 3 Xrotation Yrotation Zrotation
		JOINT LeftUpLeg
		{
			OFFSET 11.394100 -6.187798 -0.413800
			CHANNELS 3 Xrotation Yrotation Zrotation
			JOINT LeftLeg
			{
				OFFSET 0.430247 -32.302673 3.732800
				CHANNELS 3 Xrotation Yrotation Zrotation
				JOINT LeftFoot
				{
					OFFSET -0.430247 -48.264931 -6.423300
					CHANNELS 3 Xrotation Yrotation Zrotation
					JOINT LeftToeBase
					{
						OFFSET 4.230900 -16.068199 23.438400
						CHANNELS 3 Xrotation Yrotation Zrotation
						JOINT LeftToe_End
						{
							OFFSET 4.510700 0.695400 19.974600
							CHANNELS 3 Xrotation Yrotation Zrotation
							End Site
							{
								OFFSET 0 0 0
							}
						}
					}
				}
			}
		}
	}
	JOINT RightUpLeg_virtual
	{
		OFFSET 0.000000 0.000000 0.000000
		CHANNELS 3 Xrotation Yrotation Zrotation
		JOINT RightUpLeg
		{
			OFFSET -11.333700 -6.187798 -0.413800
			CHANNELS 3 Xrotation Yrotation Zrotation
			JOINT RightLeg
			{
				OFFSET -0.430392 -32.302628 3.733000
				CHANNELS 3 Xrotation Yrotation Zrotation
				JOINT RightFoot
				{
					OFFSET 0.430392 -48.264973 -6.423500
					CHANNELS 3 Xrotation Yrotation Zrotation
					JOINT RightToeBase
					{
						OFFSET -4.230900 -16.068199 23.438400
						CHANNELS 3 Xrotation Yrotation Zrotation
						JOINT RightToe_End
						{
							OFFSET -4.510700 0.695400 19.974600
							CHANNELS 3 Xrotation Yrotation Zrotation
							End Site
							{
								OFFSET 0 0 0
							}
						}
					}
				}
			}
		}
	}
	JOINT Spine_virtual
	{
		OFFSET 0.000000 0.000000 0.000000
		CHANNELS 3 Xrotation Yrotation Zrotation
		JOINT Spine
		{
			OFFSET -0.002400 12.777504 0.315300
			CHANNELS 3 Xrotation Yrotation Zrotation
			JOINT Spine1
			{
				OFFSET -0.002067 5.816869 0.032633
				CHANNELS 3 Xrotation Yrotation Zrotation
				JOINT Spine1_split
				{
					OFFSET -0.002067 5.816869 0.032633
					CHANNELS 3 Xrotation Yrotation Zrotation
					JOINT Spine2
					{
						OFFSET -0.002067 5.816869 0.032633
						CHANNELS 3 Xrotation Yrotation Zrotation
						JOINT Neck_virtual
						{
							OFFSET 0.000000 0.000000 0.000000
							CHANNELS 3 Xrotation Yrotation Zrotation
							JOINT Neck
							{
								OFFSET -0.003700 21.199493 -0.826900
								CHANNELS 3 Xrotation Yrotation Zrotation
								JOINT Head
								{
									OFFSET 0.000000 20.442200 4.834800
									CHANNELS 3 Xrotation Yrotation Zrotation
									JOINT HeadTop_End
									{
										OFFSET 0.000000 34.668396 4.968400
										CHANNELS 3 Xrotation Yrotation Zrotation
										End Site
										{
											OFFSET 0 0 0
										}
									}
								}
							}
						}
						JOINT LeftShoulder_virtual
						{
							OFFSET 0.000000 0.000000 0.000000
							CHANNELS 3 Xrotation Yrotation Zrotation
							JOINT LeftShoulder
							{
								OFFSET 3.288150 8.794197 -1.372250
								CHANNELS 3 Xrotation Yrotation Zrotation
								JOINT LeftShoulder_split
								{
									OFFSET 3.288150 8.794197 -1.372250
									CHANNELS 3 Xrotation Yrotation Zrotation
									JOINT LeftArm
									{
										OFFSET 11.953299 -2.279007 -0.146200
										CHANNELS 3 Xrotation Yrotation Zrotation
										JOINT LeftForeArm
										{
											OFFSET 18.448900 0.000000 0.000000
											CHANNELS 3 Xrotation Yrotation Zrotation
											JOINT LeftHand
											{
												OFFSET 29.527798 0.000000 0.000000
												CHANNELS 3 Xrotation Yrotation Zrotation
												End Site
												{
													OFFSET 0 0 0
												}
											}
										}
									}
								}
							}
						}
						JOINT RightShoulder_virtual
						{
							OFFSET 0.000000 0.000000 0.000000
							CHANNELS 3 Xrotation Yrotation Zrotation
							JOINT RightShoulder
							{
								OFFSET -3.249400 8.794197 -1.372250
								CHANNELS 3 Xrotation Yrotation Zrotation
								JOINT RightShoulder_split
								{
									OFFSET -3.249400 8.794197 -1.372250
									CHANNELS 3 Xrotation Yrotation Zrotation
									JOINT RightArm
									{
										OFFSET -11.953299 -2.279007 -0.146200
										CHANNELS 3 Xrotation Yrotation Zrotation
										JOINT RightForeArm
										{
											OFFSET -18.448900 0.000000 0.000000
											CHANNELS 3 Xrotation Yrotation Zrotation
											JOINT RightHand
											{
												OFFSET -29.527802 0.000000 0.000000
												CHANNELS 3 Xrotation Yrotation Zrotation
												End Site
												{
													OFFSET 0 0 0
												}
											}
										}
									}
								}
							}
						}
					}
				}
			}
		}
	}
}
MOTION
Frames: 4
Frame Time: 0.03333333
0.132885 96.502060 -0.662796 0.000000 0.000000 0.000000 7.232488 -16.903977 1.388036 -38.287821 5.582907 9.656746 28.152518 7.547875 2.124040 2.304814 -1.468314 -5.483995 2.822545 -2.006309 -0.930402 0.000000 0.000000 0.000000 8.160981 -18.145098 1.785877 -17.215598 -9.038023 -12.708054 23.698269 -4.899708 -0.624112 -14.649806 -5.319017 11.751639 2.101364 2.456303 -1.208605 0.000000 0.000000 0.000000 7.905177 -13.712426 1.290373 24.884894 4.605327 -1.183677 2.606439 2.032013 -1.666090 0.562170 1.430601 0.415047 0.000000 0.000000 0.000000 3.758070 1.637430 -0.952101 -14.317221 1.903159 1.710614 -11.562558 10.095295 -2.117437 0.000000 0.000000 0.000000 3.595434 1.989730 -1.110448 6.949525 -21.161036 9.034796 -0.812637 -0.651730 0.864581 -31.566549 -10.763456 -84.806258 -0.299382 -44.580945 -3.101849 0.000000 0.000000 0.000000 4.028665 1.909017 -0.910098 12.131773 25.816356 -20.203285 -4.969488 1.603085 -1.187803 -43.130807 1.206685 85.917612 -0.628316 60.942868 7.624801 0.000000 0.000000 0.000000 
0.163925 96.505424 -0.717899 0.000000 0.000000 0.000000 7.228532 -17.206806 1.438458 -38.323580 5.470274 9.708048 28.301615 7.786567 2.041486 2.164394 -1.417153 -5.575045 2.946275 -2.002030 -0.954045 0.000000 0.000000 0.000000 8.141102 -18.312099 1.838598 -17.388096 -9.208156 -12.707635 23.700321 -4.824835 -0.658517 -14.568833 -5.253756 11.542339 2.324066 2.415222 -1.103786 0.000000 0.000000 0.000000 7.839635 -14.012247 1.254753 24.897595 4.563089 -1.133421 2.586955 2.028202 -1.598403 0.533335 1.343905 0.401298 0.000000 0.000000 0.000000 3.786860 1.678890 -0.929632 -14.218528 2.154813 1.606710 -11.661053 10.560401 -2.579381 0.000000 0.000000 0.000000 3.505613 2.004183 -1.077249 6.930344 -20.879820 8.800344 -0.625358 -1.331696 0.992873 -32.072045 -10.929595 -84.592931 -0.687245 -44.763547 -3.365959 0.000000 0.000000 0.000000 4.004852 1.926506 -0.833698 12.019838 25.807953 -19.965119 -5.110281 1.307564 -1.077692 -43.019598 0.420696 86.073170 -1.352129 61.319724 8.214760 0.000000 0.000000 0.000000 
0.218556 96.457275 -0.852066 0.000000 0.000000 0.000000 7.156258 -17.934596 1.498812 -38.361413 5.383936 9.929182 28.616145 8.230748 1.922758 1.928656 -1.270886 -5.764216 3.077228 -1.983429 -1.005087 0.000000 0.000000 0.000000 8.021999 -18.912929 1.894452 -17.823210 -9.358811 -12.702577 23.828686 -4.470625 -0.733917 -14.513240 -5.020031 11.346289 2.449475 2.441081 -1.187371 0.000000 0.000000 0.000000 7.702574 -14.762778 1.252264 24.879003 4.522312 -1.006402 2.573798 2.039697 -1.537771 0.515698 1.221466 0.413124 0.000000 0.000000 0.000000 3.835354 1.720781 -0.909964 -14.121295 2.867670 1.269310 -11.811003 11.631599 -3.353728 0.000000 0.000000 0.000000 3.431616 2.052935 -1.037989 6.812231 -20.607482 8.119934 -0.418671 -1.950976 0.913476 -32.258109 -11.787942 -83.397573 -0.646497 -45.147745 -3.295522 0.000000 0.000000 0.000000 4.014838 1.943126 -0.789410 11.696211 25.644473 -19.451621 -5.274704 1.142235 -0.956191 -43.371134 1.051708 85.728259 -1.931656 61.047643 8.559000 0.000000 0.000000 0.000000 
0.305450 96.373024 -1.065598 0.000000 0.000000 0.000000 7.002664 -18.923317 1.569935 -38.401827 5.362058 10.263847 29.004846 8.851540 1.770002 1.692148 -1.072579 -6.023468 3.172499 -1.950748 -1.058057 0.000000 0.000000 0.000000 7.839134 -19.865641 1.971828 -18.475218 -9.500900 -12.710438 24.145156 -3.853850 -0.835904 -14.431082 -4.641187 11.159188 2.477350 2.516080 -1.405048 0.000000 0.000000 0.000000 7.482717 -15.881877 1.296746 24.843411 4.478640 -0.833181 2.585688 2.062665 -1.487077 0.471865 1.048512 0.508940 0.000000 0.000000 0.000000 3.876243 1.759467 -0.881203 -14.040134 3.916230 0.733720 -11.940626 13.082354 -4.274376 0.000000 0.000000 0.000000 3.400474 2.115236 -1.007600 6.614059 -20.347494 7.044323 -0.239200 -2.341725 0.679053 -32.063920 -13.253695 -81.396430 -0.307218 -45.526254 -3.037550 0.000000 0.000000 0.000000 4.057662 1.964865 -0.775247 11.217343 25.369349 -18.749680 -5.435122 1.117230 -0.760958 -44.145394 3.082811 85.018978 -2.335537 60.228950 8.674423 0.000000 0.000000 0.000000 
